<svg viewBox="0 0 146 142" fill="none" xmlns="http://www.w3.org/2000/svg"><path d="M145.373 35.893a6.667 6.667 0 00-3.301-5.732L91.879 1.025c-2.374-1.37-5.205-1.366-7.57.006-2.366 1.369-3.779 3.821-3.781 6.56l-.037 49.914v3.087l-.037 46.936c-.002 4.221-3.101 7.818-7.054 8.186a7.682 7.682 0 01-5.994-2.007 7.868 7.868 0 01-2.55-5.802l.043-55.599c0-2.338-1.21-4.476-3.265-5.735l-51.71-29.93a6.483 6.483 0 00-6.577-.005C1.283 17.826.054 19.961.05 22.348L0 90.252c-.006 7.867 4.218 15.22 11.03 19.198l50.604 29.311c.175.099.355.184.53.281v.031l.747.368s.017.006.026.012c.003 0 .008.005.011.005l1.88.854v-.057a22.043 22.043 0 007.813 1.466c3.815.002 7.622-.99 11.03-2.966l50.607-29.212c4.624-2.687 8.135-7.036 9.852-12.085l.073.043.44-1.7s0-.015.003-.02l.245-.967-.054-.032c.299-1.445.491-2.92.491-4.416l.04-54.468.005-.005z" fill="url(#paint0_linear_477_1594)"></path><defs><linearGradient id="paint0_linear_477_1594" x1="122.051" y1="-11.4723" x2="-19.491" y2="161.517" gradientUnits="userSpaceOnUse"><stop offset="0.05" stop-color="#BEFD6E"></stop><stop offset="0.478859" stop-color="#00F5CF"></stop><stop offset="1" stop-color="#001AFF"></stop></linearGradient></defs></svg>